HIERARCHY
ROOT root
{
	OFFSET	0	13.1	24.9
	CHANNELS 6  Xposition Yposition Zposition Xrotation Yrotation Zrotation
	JOINT spine_1
	{
		OFFSET	0	9.99999	0
		CHANNELS 3  Xrotation Yrotation Zrotation
		JOINT spine_2
		{
			OFFSET	0	112	-10
			CHANNELS 3  Xrotation Yrotation Zrotation
			JOINT spine_3
			{
				OFFSET	0	206.5	19.3
				CHANNELS 3  Xrotation Yrotation Zrotation
				JOINT spine_4
				{
					OFFSET	0	110.4	14.6
					CHANNELS 3  Xrotation Yrotation Zrotation
					JOINT neck_1
					{
						OFFSET	0	71.8	-50.3
						CHANNELS 3  Xrotation Yrotation Zrotation
						JOINT neck_2
						{
							OFFSET	0	86.2	-25.8
							CHANNELS 3  Xrotation Yrotation Zrotation
							JOINT head_ee
							{
								OFFSET	0	179.8	-8.7
								CHANNELS 3  Xrotation Yrotation Zrotation
								End Site
								{
									OFFSET	1	0	0
								}
							}
						}
					}
					JOINT left_clavicle
					{
						OFFSET	-43.2	22.4	-70.8
						CHANNELS 3  Xrotation Yrotation Zrotation
						JOINT left_shoulder
						{
							OFFSET	-93.9	-5.79999	48.7
							CHANNELS 3  Xrotation Yrotation Zrotation
							JOINT left_elbow
							{
								OFFSET	-291.4	-30.8	15.2
								CHANNELS 3  Xrotation Yrotation Zrotation
								JOINT left_lowarm_twist
								{
									OFFSET	-110.7	-3.89999	13.6
									CHANNELS 3  Xrotation Yrotation Zrotation
									JOINT left_hand
									{
										OFFSET	-110.7	-3.89999	13.6
										CHANNELS 3  Xrotation Yrotation Zrotation
										JOINT left_ee
										{
											OFFSET	-80.8	-5.10001	12.1
											CHANNELS 3  Xrotation Yrotation Zrotation
											End Site
											{
												OFFSET	1	0	0
											}
										}
									}
								}
							}
						}
					}
					JOINT right_clavicle
					{
						OFFSET	43.2	22.4	-70.8
						CHANNELS 3  Xrotation Yrotation Zrotation
						JOINT right_shoulder
						{
							OFFSET	93.9	-5.79999	48.7
							CHANNELS 3  Xrotation Yrotation Zrotation
							JOINT right_elbow
							{
								OFFSET	291.4	-30.8	15.2
								CHANNELS 3  Xrotation Yrotation Zrotation
								JOINT right_lowarm_twist
								{
									OFFSET	110.7	-3.89999	13.6
									CHANNELS 3  Xrotation Yrotation Zrotation
									JOINT right_hand
									{
										OFFSET	110.7	-3.89999	13.6
										CHANNELS 3  Xrotation Yrotation Zrotation
										JOINT right_ee
										{
											OFFSET	80.8	-5.10001	12.1
											CHANNELS 3  Xrotation Yrotation Zrotation
											End Site
											{
												OFFSET	1	0	0
											}
										}
									}
								}
							}
						}
					}
				}
			}
		}
	}
	JOINT left_hip
	{
		OFFSET	-82.8	-127.5	0.300001
		CHANNELS 3  Xrotation Yrotation Zrotation
		JOINT left_knee
		{
			OFFSET	-28.2	-396.7	2.2
			CHANNELS 3  Xrotation Yrotation Zrotation
			JOINT left_ankle
			{
				OFFSET	-11.7	-411.3	35.4
				CHANNELS 3  Xrotation Yrotation Zrotation
				JOINT left_toes
				{
					OFFSET	0	-60	-88.6
					CHANNELS 3  Xrotation Yrotation Zrotation
					JOINT left_foot_ee
					{
						OFFSET	-22.5	-16.5	-42.2
						CHANNELS 3  Xrotation Yrotation Zrotation
						End Site
						{
							OFFSET	1	0	0
						}
					}
				}
			}
		}
	}
	JOINT right_hip
	{
		OFFSET	82.8	-127.5	0.300001
		CHANNELS 3  Xrotation Yrotation Zrotation
		JOINT right_knee
		{
			OFFSET	28.2	-396.7	2.2
			CHANNELS 3  Xrotation Yrotation Zrotation
			JOINT right_ankle
			{
				OFFSET	11.7	-411.3	35.4
				CHANNELS 3  Xrotation Yrotation Zrotation
				JOINT right_toes
				{
					OFFSET	0	-60	-88.6
					CHANNELS 3  Xrotation Yrotation Zrotation
					JOINT right_foot_ee
					{
						OFFSET	22.5	-16.5	-42.2
						CHANNELS 3  Xrotation Yrotation Zrotation
						End Site
						{
							OFFSET	1	0	0
						}
					}
				}
			}
		}
	}
}
MOTION
Frames: 13
Frame Time: 0.02
3546.78102076 727.606 -1536.09218816 -14.2565822093 48.3708578191 4.36957496378 5.38248 0.130583 0.411955 5.38257 0.104105 0.41943 5.38324 0.0540909 0.428758 5.38301 0.121126 0.414835 -22.0535 2.88773 -1.83729 -22.1146 6.44016 -0.392544 -0.0 0.0 -0.0 -0.453762 14.3459 0.955461 -38.3551 -36.0394 65.9112 0.835911 -22.4936 0.166227 -2.85404 -0.109262 0.348013 -2.32756 20.1806 -5.68569 -0.0 0.0 -0.0 9.22051 17.8948 -17.8092 -24.2887 27.3011 -62.4028 0.781128 21.1538 -0.14586 14.3065 -0.28048 1.80128 -0.50566 -10.925 -1.29169 0.0 0.0 0.0 23.3665 3.30196 2.01267 -17.3689 0.31768 2.6363 8.23895 4.93043 -1.17973 1.51075 -0.0 -0.0 -0.0 0.0 -0.0 4.29171 -27.6239 7.26093 3.38389 0.154067 0.496284 13.1624 2.01571 1.87623 1.996 -0.0 -0.0 0.0 0.0 0.0 
3548.43869853 727.606 -1536.81223001 -13.8470645306 46.8781820473 3.81528068511 5.38248 0.130583 0.411955 5.38257 0.104105 0.41943 5.38324 0.0540909 0.428758 5.38301 0.121126 0.414835 -22.0535 2.88773 -1.83729 -22.1146 6.44016 -0.392544 -0.0 0.0 -0.0 -0.453762 14.3459 0.955461 -38.3551 -36.0394 65.9112 0.835911 -22.4936 0.166227 -2.85404 -0.109262 0.348013 -2.32756 20.1806 -5.68569 -0.0 0.0 -0.0 9.22051 17.8948 -17.8092 -24.2887 27.3011 -62.4028 0.781128 21.1538 -0.14586 14.3065 -0.28048 1.80128 -0.50566 -10.925 -1.29169 0.0 0.0 0.0 23.3665 3.30196 2.01267 -17.3689 0.31768 2.6363 8.23895 4.93043 -1.17973 1.51075 -0.0 -0.0 -0.0 0.0 -0.0 4.29171 -27.6239 7.26093 3.38389 0.154067 0.496284 13.1624 2.01571 1.87623 1.996 -0.0 -0.0 0.0 0.0 0.0 
3549.48670244 727.606 -1537.24049497 -13.6067967914 45.9418517315 3.48356466194 5.38248 0.130583 0.411955 5.38257 0.104105 0.41943 5.38324 0.0540909 0.428758 5.38301 0.121126 0.414835 -22.0535 2.88773 -1.83729 -22.1146 6.44016 -0.392544 -0.0 0.0 -0.0 -0.453762 14.3459 0.955461 -38.3551 -36.0394 65.9112 0.835911 -22.4936 0.166227 -2.85404 -0.109262 0.348013 -2.32756 20.1806 -5.68569 -0.0 0.0 -0.0 9.22051 17.8948 -17.8092 -24.2887 27.3011 -62.4028 0.781128 21.1538 -0.14586 14.3065 -0.28048 1.80128 -0.50566 -10.925 -1.29169 0.0 0.0 0.0 23.3665 3.30196 2.01267 -17.3689 0.31768 2.6363 8.23895 4.93043 -1.17973 1.51075 -0.0 -0.0 -0.0 0.0 -0.0 4.29171 -27.6239 7.26093 3.38389 0.154067 0.496284 13.1624 2.01571 1.87623 1.996 -0.0 -0.0 0.0 0.0 0.0 
3549.43057598 727.606 -1537.21807883 -13.6193228563 45.9918597969 3.50098767553 5.38248 0.130583 0.411955 5.38257 0.104105 0.41943 5.38324 0.0540909 0.428758 5.38301 0.121126 0.414835 -22.0535 2.88773 -1.83729 -22.1146 6.44016 -0.392544 -0.0 0.0 -0.0 -0.453762 14.3459 0.955461 -38.3551 -36.0394 65.9112 0.835911 -22.4936 0.166227 -2.85404 -0.109262 0.348013 -2.32756 20.1806 -5.68569 -0.0 0.0 -0.0 9.22051 17.8948 -17.8092 -24.2887 27.3011 -62.4028 0.781128 21.1538 -0.14586 14.3065 -0.28048 1.80128 -0.50566 -10.925 -1.29169 0.0 0.0 0.0 23.3665 3.30196 2.01267 -17.3689 0.31768 2.6363 8.23895 4.93043 -1.17973 1.51075 -0.0 -0.0 -0.0 0.0 -0.0 4.29171 -27.6239 7.26093 3.38389 0.154067 0.496284 13.1624 2.01571 1.87623 1.996 -0.0 -0.0 0.0 0.0 0.0 
3544.49191265 727.305 -1540.58631001 -14.3815557489 48.8203381276 4.05312048669 5.34925 0.182955 0.611204 5.34945 0.143692 0.621607 5.35081 0.0692871 0.634225 5.35029 0.16858 0.615324 -21.2288 4.37598 -1.92934 -21.3595 9.3802 0.141412 -0.0 0.0 -0.0 -0.66474 12.9487 0.429155 -37.2901 -33.2405 68.3239 0.878618 -23.5204 0.18292 -3.52461 -0.137443 0.428972 -2.77864 18.6407 -9.2088 -0.0 0.0 -0.0 9.21538 16.3893 -17.8866 -22.4655 28.0015 -61.4128 0.761816 20.6755 -0.138966 13.8279 -0.278416 1.74018 -0.495214 -9.6058 -0.801062 0.0 0.0 0.0 24.2267 1.6929 2.97019 -14.1339 0.319386 2.14002 10.7625 4.87321 -1.52776 1.46349 -0.0 -0.0 -0.0 0.0 -0.0 4.03174 -28.0857 7.3618 3.64319 0.16708 0.533933 14.355 1.02269 2.03061 2.58131 -0.0 -0.0 0.0 0.0 0.0 
3540.42425329 724.03 -1541.92426599 -15.4283401798 51.0532646181 4.94883793917 5.15057 0.119584 0.787532 5.15091 0.0692303 0.793545 5.15156 -0.0277319 0.796076 5.15069 0.0983375 0.790466 -21.0583 5.48275 -0.615132 -21.2437 10.8768 1.83914 -0.0 0.0 -0.0 -0.989034 12.0173 -0.238244 -37.2524 -32.0231 69.6783 0.95463 -25.3088 0.214342 -3.38798 -0.131624 0.412503 -2.81468 18.373 -9.57293 -0.0 0.0 -0.0 9.3058 16.4799 -18.0815 -21.7161 28.422 -60.4102 0.856568 22.9922 -0.174213 13.4763 -0.276573 1.69531 -0.47815 -9.78918 -0.988053 0.0 0.0 0.0 25.1158 0.554096 3.54152 -11.2181 0.296923 1.69325 11.5813 4.75226 -1.63926 1.95854 -0.0 -0.0 -0.0 0.0 -0.0 3.63913 -27.5022 7.62013 4.10511 0.190685 0.600856 15.5585 0.996954 2.18956 3.46201 -0.0 -0.0 0.0 0.0 0.0 
3533.79115495 720.227 -1544.46883505 -14.5591018514 52.5467771059 4.05124517818 4.97311 0.149005 1.03654 4.9737 0.0827491 1.04392 4.97471 -0.0479752 1.0461 4.9732 0.117829 1.04055 -20.9451 6.19274 -0.504232 -21.1774 12.1918 2.24874 -0.0 0.0 -0.0 -1.19807 11.5194 -0.661582 -36.8047 -29.9206 70.7956 0.936973 -24.8979 0.206851 -3.48412 -0.135715 0.424093 -2.97721 18.3862 -10.5626 -0.0 0.0 -0.0 9.49319 17.0015 -18.4673 -20.2722 28.9423 -60.6228 0.822928 22.1783 -0.161293 13.1098 -0.27436 1.64854 -0.446272 -9.75014 -1.176 0.0 0.0 0.0 26.8849 -0.456098 3.26059 -8.31944 0.25209 1.25078 12.1199 4.93897 -1.71177 2.01351 -0.0 -0.0 -0.0 0.0 -0.0 2.7615 -28.7374 8.11492 4.21349 0.196301 0.616531 16.3005 0.736583 2.28511 4.11581 -0.0 -0.0 0.0 0.0 0.0 
3527.3773893 717.967 -1544.0646881 -15.9590778901 53.1971556113 4.96763066084 4.78764 0.16712 1.17036 4.78839 0.0923135 1.17862 4.78969 -0.0590837 1.18075 4.78776 0.128123 1.17527 -20.637 7.34515 -1.99176 -20.9832 15.1501 1.35635 -0.0 0.0 -0.0 -1.34421 11.3014 -0.941298 -36.672 -28.7259 72.1579 0.937397 -24.9078 0.20703 -3.24397 -0.125533 0.395129 -2.76058 18.0028 -9.44 -0.0 0.0 -0.0 9.44607 17.1336 -18.3552 -18.7402 29.4283 -59.5843 0.841572 22.6306 -0.168399 12.8337 -0.272495 1.61333 -0.596066 -8.91758 0.140169 0.0 0.0 0.0 27.6288 -1.27036 3.40232 -5.34917 0.182988 0.800248 12.1138 4.75739 -1.71123 1.65591 -0.0 -0.0 -0.0 0.0 -0.0 2.17431 -28.7059 8.03491 6.81704 0.340114 0.98982 17.0705 2.03296 2.39322 4.57619 -0.0 -0.0 0.0 0.0 0.0 
3519.43551714 716.404 -1543.99930466 -16.9306095202 53.6539716266 5.5249324024 4.76367 0.213914 1.34586 4.76467 0.127848 1.35674 4.7669 -0.0471422 1.36193 4.76435 0.168521 1.35229 -20.3261 8.1772 -2.906 -20.7575 17.2178 0.844056 -0.0 0.0 -0.0 -1.24787 10.9575 -0.828201 -36.5304 -27.903 73.0921 0.932358 -24.7901 0.204912 -3.03691 -0.116853 0.370123 -2.59399 17.7465 -8.55335 -0.0 0.0 -0.0 9.45118 17.0716 -18.3701 -17.3905 29.8648 -59.1042 0.873165 23.3902 -0.180749 12.6571 -0.271212 1.5908 -0.684419 -8.25136 0.996509 0.0 0.0 0.0 28.0787 -1.49596 3.34728 -3.23577 0.119638 0.482112 12.4805 4.70291 -1.76067 1.58623 -0.0 -0.0 -0.0 0.0 -0.0 2.21311 -29.0023 8.56471 8.51567 0.443052 1.22976 17.6066 2.86128 2.46852 4.92992 -0.0 -0.0 0.0 0.0 0.0 
3511.98931727 717.197 -1545.76064589 -16.9349659295 54.1306948526 6.13473317357 4.54042 0.165798 1.37162 4.54146 0.0781907 1.37938 4.54258 -0.104703 1.37762 4.53995 0.11416 1.37687 -19.7019 8.58264 -3.61109 -20.1615 18.3822 0.275634 -0.0 0.0 -0.0 -1.23769 10.5112 -0.876099 -36.6119 -27.3867 73.6529 0.901633 -24.0673 0.192205 -2.4764 -0.09381 0.302278 -2.33679 18.1347 -6.78175 -0.0 0.0 -0.0 9.53414 15.7316 -18.6259 -16.1374 30.2315 -58.8156 0.884744 23.6664 -0.185372 12.3524 -0.268838 1.55196 -0.855806 -6.86255 2.71294 0.0 0.0 0.0 27.7526 -1.80616 2.09683 -1.70196 0.0663264 0.25276 10.2009 4.6612 -1.45123 0.543235 -0.0 -0.0 -0.0 0.0 -0.0 2.51516 -28.935 8.72562 6.38965 0.315341 0.928987 16.23 2.22142 2.28517 4.66568 -0.0 -0.0 0.0 0.0 0.0 
3492.33550534 707.672 -1554.67564192 -16.8980697269 54.3452302215 6.47626256794 4.32359 -0.0420561 1.67176 4.32513 -0.148334 1.6657 4.31979 -0.373511 1.63005 4.3161 -0.111424 1.66857 -19.2364 9.85065 -4.29102 -19.8281 21.194 0.131464 -0.0 0.0 -0.0 -0.771836 8.88103 -0.297632 -38.9278 -26.8854 75.5722 0.871542 -23.3514 0.180105 -1.3787 -0.0506133 0.168783 -1.98341 17.4853 -4.95366 -0.0 0.0 -0.0 9.59601 14.9336 -18.8005 -14.5948 30.5558 -58.1091 1.16333 29.9529 -0.311211 11.8262 -0.264251 1.48491 -0.824896 -5.78387 2.98328 0.0 0.0 0.0 28.1906 -1.88997 0.513057 1.2742 -0.0545634 -0.187912 7.24044 5.31072 -1.03979 0.307866 -0.0 -0.0 -0.0 0.0 -0.0 2.40414 -29.0737 9.36659 4.46601 0.209503 0.653013 17.7677 5.15545 2.50924 5.33652 -0.0 -0.0 0.0 0.0 0.0 
3480.9514793 704.413 -1557.03452601 -17.4655369946 54.9204126588 7.30391966293 4.34211 -0.138338 1.76462 4.3438 -0.250327 1.75224 4.33501 -0.485929 1.70204 4.33102 -0.211069 1.7574 -18.9379 10.312 -4.27739 -19.5709 22.0892 0.292575 -0.0 0.0 -0.0 -0.388106 8.23027 0.291856 -39.3744 -26.7529 76.0057 0.830474 -22.3617 0.164153 -0.813779 -0.0293829 0.0997701 -1.76345 17.3586 -3.67491 -0.0 0.0 -0.0 9.82389 13.4401 -19.3637 -13.7528 30.4417 -57.967 1.26638 32.0998 -0.364336 11.5049 -0.261146 1.44398 -0.895249 -4.95403 3.80939 0.0 0.0 0.0 27.9524 -1.921 -0.120815 2.30962 -0.101977 -0.339707 5.31845 5.31165 -0.768331 -0.0898782 0.0 0.0 -0.0 0.0 -0.0 2.91864 -29.0484 9.69794 2.82519 0.126609 0.414972 17.7743 5.99194 2.51845 5.2511 -0.0 -0.0 0.0 0.0 0.0 
3467.77222121 700.293 -1559.92242585 -17.8029063495 54.5077395226 7.77831011863 4.39914 -0.00153114 1.78178 4.4009 -0.114889 1.77807 4.39613 -0.353332 1.74641 4.39188 -0.0731313 1.78028 -18.2497 10.5794 -4.33462 -18.8759 22.6676 0.216488 -0.0 0.0 -0.0 0.527212 7.40394 1.81805 -40.03 -27.349 76.1333 0.70869 -19.3444 0.120786 0.488599 0.016959 -0.0600966 -1.57574 17.0219 -2.68944 -0.0 0.0 -0.0 9.83342 11.5556 -19.4399 -13.1228 30.3489 -57.8475 1.32957 33.3685 -0.398509 11.7104 -0.263158 1.47016 -1.04304 -4.78463 4.85799 0.0 0.0 0.0 27.5783 -1.56778 -0.558562 4.06827 -0.188782 -0.595526 3.02377 6.36927 -0.439367 -0.600666 0.0 0.0 -0.0 0.0 -0.0 3.77804 -29.3872 10.3775 2.03825 0.089285 0.300005 19.0212 5.90639 2.67823 4.91781 -0.0 -0.0 0.0 0.0 0.0 
